<svg xmlns="http://www.w3.org/2000/svg" xmlns:xlink="http://www.w3.org/1999/xlink" width="2000" zoomAndPan="magnify" viewBox="0 0 1500 1499.999933" height="2000" preserveAspectRatio="xMidYMid meet" version="1.0"><defs><g/><clipPath id="2a0b6f665b"><path d="M 928 564 L 1367 564 L 1367 889 L 928 889 Z M 928 564 " clip-rule="nonzero"/></clipPath><clipPath id="d4cecc0c0d"><path d="M 907.511719 611.773438 L 1332.457031 508.773438 L 1406.484375 814.179688 L 981.535156 917.179688 Z M 907.511719 611.773438 " clip-rule="nonzero"/></clipPath><clipPath id="1abe251f3a"><path d="M 907.511719 611.773438 L 1332.457031 508.773438 L 1406.484375 814.179688 L 981.535156 917.179688 Z M 907.511719 611.773438 " clip-rule="nonzero"/></clipPath><clipPath id="a85334e472"><path d="M 150 686.070312 L 285.75 686.070312 L 285.75 821.820312 L 150 821.820312 Z M 150 686.070312 " clip-rule="nonzero"/></clipPath><clipPath id="3b09fe6a3a"><rect x="0" width="714" y="0" height="226"/></clipPath></defs><g clip-path="url(#2a0b6f665b)"><g clip-path="url(#d4cecc0c0d)"><g clip-path="url(#1abe251f3a)"><path fill="#9d89fc" d="M 1358.746094 653.003906 C 1360.335938 659.035156 1363.675781 662.632812 1366.417969 664.65625 C 1362.285156 670.253906 1358.125 675.828125 1353.941406 681.378906 C 1349.390625 677.957031 1341.984375 670.683594 1338.746094 658.433594 C 1331.070312 668.707031 1323.300781 678.910156 1315.4375 689.042969 C 1306.460938 700.613281 1297.355469 712.09375 1288.113281 723.46875 C 1278.871094 734.84375 1269.484375 746.113281 1259.921875 757.25 C 1250.359375 768.390625 1240.621094 779.390625 1230.644531 790.214844 C 1220.664062 801.03125 1210.453125 811.667969 1199.871094 822.011719 C 1189.292969 832.355469 1178.359375 842.417969 1166.78125 851.929688 C 1155.171875 861.40625 1143.007812 870.449219 1129.160156 877.882812 C 1122.207031 881.554688 1114.796875 884.835938 1106.433594 886.871094 C 1102.238281 887.847656 1097.78125 888.5 1093.058594 888.4375 C 1090.703125 888.410156 1088.273438 888.15625 1085.84375 887.722656 C 1083.40625 887.238281 1080.972656 886.527344 1078.601562 885.570312 C 1076.246094 884.574219 1073.984375 883.347656 1071.882812 881.910156 C 1069.976562 880.449219 1068.046875 879.09375 1066.359375 877.328125 C 1064.566406 875.703125 1063.070312 873.761719 1061.570312 871.851562 C 1060.902344 870.84375 1060.242188 869.828125 1059.59375 868.800781 C 1059.253906 868.296875 1058.972656 867.769531 1058.707031 867.234375 L 1057.902344 865.628906 C 1055.828125 861.34375 1054.433594 856.84375 1053.746094 852.476562 L 1053.449219 850.828125 L 1053.273438 849.207031 C 1053.164062 848.128906 1053.03125 847.039062 1052.953125 845.964844 C 1052.890625 843.851562 1052.734375 841.691406 1052.835938 839.632812 C 1053.015625 831.300781 1054.308594 823.421875 1056.082031 815.859375 C 1057.855469 808.292969 1060.09375 801 1062.5625 793.863281 C 1067.515625 779.601562 1073.359375 765.949219 1079.4375 752.519531 C 1085.519531 739.089844 1091.871094 725.898438 1098.160156 712.765625 C 1104.449219 699.632812 1110.691406 686.5625 1116.492188 673.429688 C 1122.261719 660.308594 1127.691406 647.085938 1131.605469 633.863281 C 1133.542969 627.265625 1135.070312 620.660156 1135.804688 614.308594 L 1136.097656 610.792969 L 1136.121094 609.652344 C 1136.132812 608.898438 1136.171875 608.128906 1136.167969 607.382812 L 1136.070312 605.199219 C 1135.859375 602.347656 1135.382812 599.695312 1134.574219 597.441406 C 1133.714844 595.222656 1132.574219 593.417969 1131.082031 591.882812 C 1130.699219 591.503906 1130.367188 591.082031 1129.886719 590.773438 L 1129.230469 590.253906 C 1129.003906 590.078125 1128.828125 589.890625 1128.523438 589.730469 C 1127.976562 589.394531 1127.433594 589.050781 1126.894531 588.699219 L 1125.179688 587.832031 C 1122.847656 586.757812 1120.328125 586.019531 1117.628906 585.597656 C 1114.933594 585.167969 1112.023438 585.183594 1109.058594 585.390625 C 1103.09375 585.84375 1096.808594 587.53125 1090.601562 589.773438 C 1084.386719 592.085938 1078.214844 595.015625 1072.15625 598.304688 C 1060.035156 604.941406 1048.367188 612.972656 1037.078125 621.578125 C 1025.789062 630.207031 1014.867188 639.464844 1004.242188 649.097656 C 993.617188 658.734375 983.265625 668.726562 973.179688 678.996094 C 968.136719 684.128906 963.15625 689.332031 958.25 694.589844 C 955.796875 697.222656 953.363281 699.867188 950.953125 702.527344 C 948.558594 705.171875 946.121094 707.898438 943.871094 710.496094 L 928.167969 696.996094 C 930.691406 694.085938 933.113281 691.382812 935.609375 688.625 C 938.089844 685.886719 940.589844 683.167969 943.109375 680.46875 C 948.140625 675.074219 953.238281 669.746094 958.410156 664.484375 C 968.75 653.957031 979.375 643.695312 990.339844 633.75 C 1001.3125 623.8125 1012.636719 614.199219 1024.507812 605.125 C 1036.394531 596.070312 1048.785156 587.5 1062.242188 580.125 C 1068.988281 576.464844 1076.007812 573.113281 1083.449219 570.339844 C 1090.929688 567.648438 1098.832031 565.429688 1107.421875 564.75 C 1111.710938 564.441406 1116.136719 564.417969 1120.652344 565.113281 C 1125.15625 565.796875 1129.699219 567.09375 1133.976562 569.089844 C 1135.035156 569.617188 1136.09375 570.136719 1137.132812 570.699219 L 1140.128906 572.578125 C 1140.621094 572.867188 1141.128906 573.289062 1141.625 573.667969 L 1143.113281 574.84375 C 1144.125 575.589844 1145.019531 576.527344 1145.921875 577.441406 C 1149.519531 581.109375 1152.265625 585.636719 1153.984375 590.234375 C 1155.660156 594.847656 1156.410156 599.4375 1156.730469 603.84375 L 1156.871094 607.121094 C 1156.878906 608.195312 1156.835938 609.25 1156.816406 610.316406 L 1156.773438 611.90625 L 1156.648438 613.460938 L 1156.390625 616.558594 C 1155.445312 624.695312 1153.625 632.328125 1151.46875 639.710938 C 1147.09375 654.445312 1141.382812 668.234375 1135.4375 681.785156 C 1129.457031 695.316406 1123.136719 708.550781 1116.835938 721.707031 C 1110.535156 734.863281 1104.242188 747.933594 1098.296875 761.058594 C 1092.359375 774.175781 1086.734375 787.359375 1082.125 800.636719 C 1079.832031 807.273438 1077.800781 813.933594 1076.246094 820.554688 C 1074.683594 827.171875 1073.667969 833.769531 1073.539062 840.011719 C 1073.449219 841.597656 1073.589844 843.078125 1073.613281 844.605469 C 1073.667969 845.347656 1073.769531 846.066406 1073.835938 846.800781 L 1073.945312 847.898438 L 1074.144531 848.9375 C 1074.570312 851.773438 1075.429688 854.292969 1076.511719 856.554688 L 1076.929688 857.398438 C 1077.058594 857.683594 1077.199219 857.960938 1077.382812 858.203125 C 1077.722656 858.710938 1078.050781 859.222656 1078.367188 859.746094 C 1079.15625 860.667969 1079.839844 861.667969 1080.78125 862.472656 C 1081.582031 863.382812 1082.699219 864.074219 1083.644531 864.871094 C 1084.558594 865.488281 1085.511719 865.996094 1086.507812 866.433594 C 1087.523438 866.828125 1088.589844 867.148438 1089.726562 867.382812 C 1090.886719 867.574219 1092.089844 867.722656 1093.378906 867.734375 C 1095.945312 867.769531 1098.761719 867.398438 1101.65625 866.722656 C 1107.472656 865.320312 1113.535156 862.738281 1119.449219 859.597656 C 1131.316406 853.246094 1142.710938 844.871094 1153.648438 835.921875 C 1164.597656 826.929688 1175.136719 817.242188 1185.394531 807.207031 C 1195.660156 797.171875 1205.640625 786.777344 1215.425781 776.175781 C 1225.207031 765.566406 1234.789062 754.742188 1244.214844 743.765625 C 1253.636719 732.785156 1262.90625 721.65625 1272.042969 710.410156 C 1281.183594 699.164062 1290.191406 687.804688 1299.082031 676.347656 C 1306.863281 666.316406 1314.558594 656.210938 1322.15625 646.039062 C 1309.535156 646.328125 1300.546875 641.117188 1296.003906 637.699219 C 1300.042969 632.335938 1304.0625 626.953125 1308.042969 621.558594 C 1310.785156 623.582031 1315.1875 625.753906 1321.359375 625.546875 C 1327.515625 625.351562 1335.527344 622.734375 1345.195312 615.214844 L 1361.4375 626.660156 C 1357.292969 638.5625 1357.15625 646.949219 1358.746094 653.003906 Z M 1358.746094 653.003906 " fill-opacity="1" fill-rule="nonzero"/></g></g></g><g clip-path="url(#a85334e472)"><path fill="#9d89fc" d="M 285.691406 735.445312 L 285.691406 772.691406 C 240.574219 785.886719 233.835938 809.289062 233.835938 822.0625 L 195.03125 822.0625 C 195.03125 811.398438 197.488281 792.089844 212.3125 773.472656 L 150.054688 773.472656 L 150.054688 734.664062 L 212.3125 734.664062 C 197.488281 716.046875 195.03125 696.738281 195.03125 686.070312 L 233.835938 686.070312 C 233.835938 698.847656 240.574219 722.25 285.691406 735.445312 Z M 285.691406 735.445312 " fill-opacity="1" fill-rule="nonzero"/></g><g transform="matrix(1, 0, 0, 1, 339, 648)"><g clip-path="url(#3b09fe6a3a)"><g fill="#000000" fill-opacity="1"><g transform="translate(0.661059, 168.48915)"><g><path d="M 78.140625 1.859375 C 54.203125 1.859375 35.503906 -3.660156 22.046875 -14.703125 C 8.585938 -25.742188 1.859375 -42.613281 1.859375 -65.3125 C 1.859375 -87.882812 8.800781 -104.660156 22.6875 -115.640625 C 36.582031 -126.617188 56.929688 -132.109375 83.734375 -132.109375 C 135.828125 -132.109375 162.925781 -114.179688 165.03125 -78.328125 L 115.546875 -78.328125 C 114.679688 -81.679688 111.734375 -84.660156 106.703125 -87.265625 C 101.679688 -89.867188 94.023438 -91.171875 83.734375 -91.171875 C 74.179688 -91.171875 67.015625 -89.929688 62.234375 -87.453125 C 57.460938 -84.972656 54.269531 -81.65625 52.65625 -77.5 C 51.039062 -73.34375 50.234375 -68.660156 50.234375 -63.453125 C 50.234375 -58.234375 51.039062 -53.328125 52.65625 -48.734375 C 54.269531 -44.148438 57.492188 -40.460938 62.328125 -37.671875 C 67.171875 -34.878906 74.304688 -33.484375 83.734375 -33.484375 C 93.035156 -33.484375 100.445312 -34.289062 105.96875 -35.90625 C 111.488281 -37.519531 114.679688 -40.5 115.546875 -44.84375 L 80.5625 -44.84375 L 80.5625 -70.890625 L 165.03125 -70.890625 L 165.03125 0 L 137.125 0 L 133.59375 -18.796875 C 128.132812 -12.335938 120.9375 -7.28125 112 -3.625 C 103.070312 0.03125 91.785156 1.859375 78.140625 1.859375 Z M 78.140625 1.859375 "/></g></g></g><g fill="#000000" fill-opacity="1"><g transform="translate(167.54777, 168.48915)"><g><path d="M 68.09375 0 L 68.09375 -42.796875 L 1.859375 -130.25 L 57.671875 -130.25 L 92.28125 -81.875 L 126.890625 -130.25 L 182.71875 -130.25 L 116.46875 -42.796875 L 116.46875 0 Z M 68.09375 0 "/></g></g></g><g fill="#000000" fill-opacity="1"><g transform="translate(352.10922, 168.48915)"><g><path d="M 3.71875 0 L 3.71875 -130.25 L 66.984375 -130.25 L 123.171875 -53.40625 L 123.171875 -130.25 L 171.546875 -130.25 L 171.546875 0 L 108.28125 0 L 52.09375 -76.84375 L 52.09375 0 Z M 3.71875 0 "/></g></g></g><g fill="#000000" fill-opacity="1"><g transform="translate(527.368163, 168.48915)"><g><path d="M 1.859375 0 L 55.8125 -130.25 L 127.640625 -130.25 L 181.59375 0 L 128.390625 0 L 119.453125 -23.4375 L 64 -23.4375 L 55.078125 0 Z M 76.65625 -56.9375 L 106.796875 -56.9375 L 91.734375 -96.75 Z M 76.65625 -56.9375 "/></g></g></g></g></g></svg>