<svg xmlns="http://www.w3.org/2000/svg" xmlns:xlink="http://www.w3.org/1999/xlink" width="300" zoomAndPan="magnify" viewBox="0 0 224.87999 30.000001" height="40" preserveAspectRatio="xMidYMid meet" version="1.0"><path fill="#9d89fc" d="M 25.769531 23.511719 C 25.277344 23.644531 24.789062 23.773438 24.296875 23.90625 C 23.953125 23.996094 23.613281 24.097656 23.269531 24.199219 C 24.332031 23.925781 25.390625 23.628906 26.449219 23.339844 C 26.929688 23.207031 27.410156 23.074219 27.886719 22.941406 C 27.179688 23.121094 26.476562 23.324219 25.769531 23.511719 Z M 19.179688 25.625 C 17.890625 23.597656 26.691406 22.191406 28.035156 21.640625 C 38.726562 18.945312 49.535156 16.726562 60.40625 14.878906 C 94.855469 9.085938 130.023438 7.636719 164.855469 10.125 C 129.492188 4.691406 93.425781 2.101562 57.796875 6.359375 C 51.285156 7.222656 44.792969 8.222656 38.34375 9.480469 C 34.199219 10.433594 29.898438 11.105469 25.992188 12.839844 C 25.695312 12.992188 25.3125 12.828125 25.179688 12.535156 C 24.597656 11.269531 28.886719 10.617188 29.6875 10.257812 C 36.839844 8.316406 44.167969 7.074219 51.496094 6.015625 C 80.695312 1.71875 110.445312 2.367188 139.71875 5.609375 C 160.878906 7.847656 181.855469 11.574219 202.8125 15.179688 C 205.519531 15.800781 208.316406 16.121094 210.925781 17.097656 C 211.558594 17.3125 211.371094 18.378906 210.660156 18.285156 C 208.328125 18.042969 206.050781 17.476562 203.75 17.058594 C 196.753906 15.722656 189.757812 14.324219 182.734375 13.144531 C 169.902344 11.441406 156.980469 10.75 144.054688 10.300781 C 118.292969 9.785156 92.480469 11.121094 67 15.066406 C 84.84375 12.800781 102.867188 12.519531 120.8125 13.589844 C 127.699219 13.921875 134.589844 14.265625 141.476562 14.621094 C 142.097656 14.65625 142.71875 14.6875 143.335938 14.71875 C 144.09375 14.78125 144.039062 16.019531 143.222656 15.941406 C 115.199219 14.363281 86.9375 12.625 59.125 17.457031 C 50.535156 18.734375 42.015625 20.503906 33.605469 22.679688 C 31.445312 22.980469 19.5 27.261719 19.179688 25.625 Z M 19.179688 25.625 " fill-opacity="1" fill-rule="nonzero"/></svg>